<svg xmlns="http://www.w3.org/2000/svg" xml:space="preserve" id="Vrstva_1" width="403.603" height="403.603" x="0" y="0" version="1.1"><style id="style906">.st1{fill:#e41513}</style><path id="path908" d="M201.801 368.283c-4.67-1.65-149-50.16-160.07-274.28 5.54.41 96.72 9.22 160.07-52.47 62.4 60.79 154.53 52.8 160.07 52.47-13.6 230.79-155.4 272.63-160.07 274.28zm176.92-310.36c-33.77 5.35-110.48 9.06-166.16-53.04-5.77-6.51-15.66-6.51-21.43 0-55.76 62.1-132.47 58.4-166.24 53.04-9.02-1.48-17.08 5.93-16.85 15.4 7.83 288.69 193.76 330.28 193.76 330.28s185.93-41.51 193.76-330.28c.24-9.47-7.83-16.88-16.84-15.4z" style="fill:#c4c4c4"/><path id="path910" d="M201.801 349.784c-4.15-1.47-132.41-44.87-142.25-245.34 4.92.37 85.95 8.25 142.25-46.93 55.45 54.37 137.33 47.23 142.25 46.93-12.09 206.44-138.1 243.87-142.25 245.34z" class="st1"/><path id="path912" d="M359.03 74.951c-30.01 4.79-98.18 8.1-147.66-47.45-5.13-5.82-13.92-5.82-19.05 0-49.55 55.55-117.72 52.24-147.73 47.45-8.01-1.33-15.18 5.3-14.97 13.78 6.96 258.23 172.18 295.43 172.18 295.43s165.23-37.13 172.18-295.43c.23-8.48-6.94-15.11-14.95-13.78z" class="st1"/><path id="path914" d="M201.801 356.462c-4.31-1.51-137.72-46.05-147.95-251.78 5.12.38 89.4 8.47 147.95-48.16 57.67 55.8 142.83 48.47 147.95 48.16-12.57 211.86-143.63 250.27-147.95 251.78zm163.52-284.9c-31.21 4.91-102.12 8.32-153.58-48.69-5.34-5.97-14.47-5.97-19.81 0-51.53 57.01-122.44 53.61-153.65 48.69-8.33-1.36-15.79 5.44-15.57 14.14 7.24 265.02 179.09 303.2 179.09 303.2s171.85-38.11 179.09-303.2c.22-8.69-7.23-15.5-15.57-14.14z" style="fill:#131412"/><path id="path916" d="M201.341 239.574c-6.98 0-12.64-5.66-12.64-12.64v-120.29c0-6.98 5.66-12.64 12.64-12.64s12.64 5.66 12.64 12.64v120.29c0 6.98-5.66 12.64-12.64 12.64zm.58 73.72c-7.17 0-12.98-5.81-12.98-12.98 0-7.17 5.81-12.98 12.98-12.98 7.17 0 12.98 5.81 12.98 12.98 0 7.17-5.81 12.98-12.98 12.98z" style="fill:none;stroke:#fff;stroke-width:26;stroke-miterlimit:10"/></svg>
